<?xml version="1.0" encoding="UTF-8" standalone="no"?>
<svg
   xmlns:dc="http://purl.org/dc/elements/1.1/"
   xmlns:cc="http://creativecommons.org/ns#"
   xmlns:rdf="http://www.w3.org/1999/02/22-rdf-syntax-ns#"
   xmlns:svg="http://www.w3.org/2000/svg"
   xmlns="http://www.w3.org/2000/svg"
   viewBox="0 0 666.66669 666.66669"
   height="666.66669"
   width="666.66669"
   xml:space="preserve"
   id="svg2"
   version="1.1"><metadata
     id="metadata8"><rdf:RDF><cc:Work
         rdf:about=""><dc:format>image/svg+xml</dc:format><dc:type
           rdf:resource="http://purl.org/dc/dcmitype/StillImage" /></cc:Work></rdf:RDF></metadata><defs
     id="defs6" /><g
     transform="matrix(1.3333333,0,0,-1.3333333,0,666.66667)"
     id="g10"><g
       transform="scale(0.1)"
       id="g12"><path
         id="path14"
         style="fill:#d3b27f;fill-opacity:1;fill-rule:nonzero;stroke:none"
         d="M 0,0 H 5000 V 5000 H 0 Z" /><path
         id="path16"
         style="fill:#c1a474;fill-opacity:1;fill-rule:nonzero;stroke:none"
         d="m 4265.02,1257.1 c -57.63,118.25 -870.53,214.11 -1815.67,214.11 -945.14,0 -1664.608,-95.86 -1606.983,-214.11 57.629,-118.26 870.533,-214.12 1815.673,-214.12 945.13,0 1664.61,95.86 1606.98,214.12" /><path
         id="path18"
         style="fill:#c1a474;fill-opacity:1;fill-rule:nonzero;stroke:none"
         d="m 3722.28,1119.61 c 0,133.68 -395.32,242.05 -882.96,242.05 -487.66,0 -882.98,-108.37 -882.98,-242.05 0,-133.68 395.32,-242.051 882.98,-242.051 487.64,0 882.96,108.371 882.96,242.051" /><path
         id="path20"
         style="fill:#1f6640;fill-opacity:1;fill-rule:nonzero;stroke:none"
         d="m 3195.18,2453.34 c -72.5,-5.39 -143.15,0.39 -211.72,16.57 -16.56,-71.76 -23.24,-139.14 -20.05,-198.26 31.4,9.05 62.5,19.49 93.09,31.64 48.92,19.48 84.57,-54.63 35.15,-74.39 -38.25,-15.34 -76.99,-27.95 -116.15,-38.59 19.3,-74.3 60.45,-126.87 123.86,-145.54 112.37,-33.08 206.05,-12.05 281,30.8 49.47,28.19 105.15,33.25 154.98,18.43 49.87,-14.67 93.83,-48.92 120.14,-99.41 39.91,-76.66 107.26,-145.1 219.63,-178.17 27.11,-7.98 54.16,-8.36 80.81,-2.34 -68.5,85.93 -113.59,189.7 -129.83,302.57 -7.59,52.41 74.75,55.77 82.19,3.83 14.64,-101.82 58.64,-194.69 123.99,-269.97 91.15,66.81 168.62,211 208.74,393.92 -81.29,3.63 -160.9,21.2 -238.01,54.05 -48.17,20.47 -25.41,99.69 23.23,78.94 74.34,-31.6 151.01,-49.45 229.51,-51.83 21.24,142.58 20.11,302.9 -12.65,465.53 -72.9,-40.74 -152.6,-69.61 -237.43,-84.81 -51.92,-9.31 -72.03,70.53 -19.8,79.89 84.82,15.2 165.18,44.87 237.78,87.99 -13.3,49.52 -29.9,99.01 -49.65,148.01 -23.33,-16.58 -46.69,-32.86 -70.4,-48.77 -43.9,-29.68 -82.89,42.85 -39.36,72.21 25.52,17.23 50.75,34.96 75.8,53.04 -53.15,109.86 -124.24,216.14 -216.71,313.42 -101.46,-24.61 -194.91,-60.87 -280.6,-105.7 13.05,-34.87 27.98,-69.14 45.14,-102.64 24.02,-47.11 -48.09,-86.65 -72.21,-39.37 -16.88,32.99 -31.83,66.7 -45.3,101.11 -63.11,-38.6 -121.34,-81.94 -174.67,-128.58 29.76,-26.63 63.67,-48.91 100.84,-65.43 47.67,-21.18 25.04,-100.45 -23.24,-78.94 -51.72,22.95 -97.49,53 -137.01,89.23 -80.28,-79.45 -147.9,-166.35 -202.61,-255.05 48.45,-29.7 102.29,-49.84 159.19,-58.58 51.71,-7.93 50.77,-90.29 -1.38,-82.37 -72.48,11.18 -137.96,34.46 -198.14,70.48 -37.28,-69.81 -66.73,-139.78 -88.16,-207.24 62.24,-13.89 126.2,-18.13 191.51,-13.34 52.8,4.04 50.87,-78.31 -1.5,-82.34" /><path
         id="path22"
         style="fill:#298e57;fill-opacity:1;fill-rule:nonzero;stroke:none"
         d="M 3811.72,3067.98 3415.36,1721.47 c -1.56,-5.3 1.47,-10.86 6.77,-12.42 5.3,-1.56 10.85,1.47 12.41,6.77 l 396.36,1346.51 c 1.56,5.3 -1.47,10.85 -6.77,12.41 -5.3,1.56 -10.86,-1.47 -12.41,-6.76" /><path
         id="path24"
         style="fill:#298e57;fill-opacity:1;fill-rule:nonzero;stroke:none"
         d="m 3539.24,2750.11 c -5.03,-17.09 -7.43,-34.37 -7.43,-51.36 -0.01,-78.51 51.27,-150.86 130.39,-174.16 17.09,-5.03 34.37,-7.44 51.36,-7.44 78.5,0 150.85,51.28 174.16,130.39 1.56,5.3 -1.47,10.85 -6.77,12.41 -5.3,1.56 -10.86,-1.47 -12.42,-6.76 -20.7,-70.41 -85.16,-116.03 -154.97,-116.04 -15.11,0.01 -30.46,2.14 -45.72,6.63 -70.41,20.7 -116.03,85.15 -116.03,154.97 0,15.1 2.13,30.46 6.62,45.72 1.56,5.29 -1.47,10.85 -6.77,12.41 -5.3,1.56 -10.86,-1.47 -12.42,-6.77" /><path
         id="path26"
         style="fill:#298e57;fill-opacity:1;fill-rule:nonzero;stroke:none"
         d="m 3653.44,3014.92 c -4.06,-13.81 -6.01,-27.78 -6.01,-41.52 0,-63.48 41.46,-121.97 105.42,-140.82 13.82,-4.06 27.78,-6.01 41.52,-6.01 63.48,0 121.97,41.46 140.82,105.42 1.56,5.3 -1.47,10.86 -6.77,12.42 -5.3,1.56 -10.86,-1.47 -12.42,-6.77 -16.24,-55.25 -66.84,-91.06 -121.63,-91.07 -11.85,0.01 -23.9,1.68 -35.87,5.2 -55.26,16.25 -91.06,66.84 -91.07,121.63 0,11.85 1.68,23.9 5.2,35.88 1.56,5.29 -1.47,10.85 -6.77,12.41 -5.3,1.56 -10.86,-1.47 -12.42,-6.77" /><path
         id="path28"
         style="fill:#298e57;fill-opacity:1;fill-rule:nonzero;stroke:none"
         d="m 3388.19,2526.63 c -7.3,-24.81 -10.79,-49.86 -10.79,-74.5 0,-113.85 74.38,-218.8 189.11,-252.59 24.81,-7.3 49.86,-10.79 74.49,-10.79 113.86,0 218.8,74.37 252.6,189.11 1.56,5.3 -1.47,10.86 -6.77,12.42 -5.3,1.56 -10.86,-1.47 -12.42,-6.77 -31.19,-106.04 -128.24,-174.75 -233.41,-174.76 -22.75,0 -45.88,3.22 -68.84,9.97 -106.03,31.2 -174.75,128.25 -174.76,233.41 0,22.75 3.22,45.89 9.98,68.85 1.56,5.3 -1.48,10.86 -6.77,12.42 -5.3,1.56 -10.86,-1.47 -12.42,-6.77" /><path
         id="path30"
         style="fill:#26814f;fill-opacity:1;fill-rule:nonzero;stroke:none"
         d="m 3077.98,2116.2 -41.37,-72.3 c -14.04,11.46 -26.83,24.41 -38.26,38.6 l 71.87,130.59 -113.73,-57.62 c -8.48,22.64 -14.03,46.72 -16.04,71.77 l -32.4,404.36 102.14,50.97 -105.55,-8.46 -15.03,187.6 109.14,-36.48 -113.99,97.09 -34.33,428.34 c -5.98,74.56 20.31,147.84 71.72,201.5 l 82.22,-72.83 -40.63,112.11 116.01,107.88 166.72,-111.44 c 66.38,-44.37 108.81,-116.66 115.19,-196.24 l 2.61,-32.48 -117.99,-132.89 127.81,10.25 10.62,-132.5 -79.8,-39.82 82.46,6.61 34.39,-429.14 -79.1,-48.44 82.46,6.61 9.1,-113.66 -101.49,-28 105.71,-24.63 13.25,-165.35 c 10.89,-135.84 -84.01,-260.66 -219.08,-278.72 -5.17,-0.69 -10.41,-1.26 -15.71,-1.68 -5.3,-0.43 -10.56,-0.7 -15.78,-0.85 -48.9,-1.31 -94.77,11.96 -134.14,35.57 l 11,93.68" /><path
         id="path32"
         style="fill:#237147;fill-opacity:1;fill-rule:nonzero;stroke:none"
         d="m 3094.55,3389.3 126.89,-1583.26 c 0.44,-5.51 5.26,-9.61 10.76,-9.17 5.51,0.44 9.62,5.26 9.17,10.77 L 3114.49,3390.9 c -0.44,5.51 -5.26,9.61 -10.77,9.17 -5.5,-0.44 -9.61,-5.26 -9.17,-10.77" /><path
         id="path34"
         style="fill:#237147;fill-opacity:1;fill-rule:nonzero;stroke:none"
         d="m 3390.55,2974.34 -245.17,-150.99 c -4.7,-2.89 -6.17,-9.05 -3.27,-13.75 2.9,-4.71 9.06,-6.17 13.76,-3.28 l 245.16,150.99 c 4.71,2.89 6.17,9.05 3.28,13.75 -2.9,4.71 -9.06,6.17 -13.76,3.28" /><path
         id="path36"
         style="fill:#237147;fill-opacity:1;fill-rule:nonzero;stroke:none"
         d="m 3405.67,2785.45 -245.15,-150.98 c -4.7,-2.89 -6.17,-9.05 -3.27,-13.76 2.89,-4.7 9.05,-6.16 13.75,-3.27 l 245.16,150.98 c 4.7,2.89 6.17,9.05 3.27,13.76 -2.89,4.7 -9.05,6.16 -13.76,3.27" /><path
         id="path38"
         style="fill:#237147;fill-opacity:1;fill-rule:nonzero;stroke:none"
         d="M 3439.69,2361.08 3194.52,2210.1 c -4.7,-2.9 -6.17,-9.06 -3.27,-13.76 2.9,-4.7 9.06,-6.17 13.76,-3.27 l 245.17,150.98 c 4.7,2.9 6.16,9.06 3.27,13.76 -2.9,4.7 -9.06,6.17 -13.76,3.27" /><path
         id="path40"
         style="fill:#237147;fill-opacity:1;fill-rule:nonzero;stroke:none"
         d="m 3186.58,2416.58 -264.63,91.93 c -5.21,1.82 -10.91,-0.94 -12.72,-6.16 -1.82,-5.22 0.94,-10.92 6.16,-12.73 l 264.63,-91.94 c 5.22,-1.81 10.91,0.95 12.73,6.17 1.81,5.21 -0.95,10.91 -6.17,12.73" /><path
         id="path42"
         style="fill:#237147;fill-opacity:1;fill-rule:nonzero;stroke:none"
         d="m 3135.02,3059.78 -264.59,91.36 c -5.22,1.8 -10.91,-0.97 -12.71,-6.19 -1.81,-5.22 0.96,-10.91 6.18,-12.71 l 264.59,-91.36 c 5.22,-1.81 10.92,0.96 12.72,6.18 1.8,5.22 -0.97,10.92 -6.19,12.72" /><path
         id="path44"
         style="fill:#237147;fill-opacity:1;fill-rule:nonzero;stroke:none"
         d="m 3126.22,3169.56 -264.58,91.37 c -5.22,1.8 -10.91,-0.97 -12.71,-6.19 -1.81,-5.22 0.96,-10.91 6.18,-12.72 l 264.58,-91.36 c 5.22,-1.81 10.92,0.96 12.72,6.18 1.8,5.22 -0.97,10.92 -6.19,12.72" /><path
         id="path46"
         style="fill:#438934;fill-opacity:1;fill-rule:nonzero;stroke:none"
         d="m 1595.03,1689.72 c 0.08,-0.25 26.7,-99.44 86.24,-199.48 29.78,-50.02 67.8,-100.3 115.07,-138.48 47.24,-38.17 103.91,-64.23 170.38,-65.26 1.22,-0.01 2.43,-0.02 3.64,-0.02 67.63,0.01 131.9,29.37 190.16,72.9 174.67,130.67 297.75,389.86 297.98,390.15 l -9.03,4.3 c 0,-0.01 -0.83,-1.75 -2.49,-5.1 -12.42,-25.09 -70.59,-138.61 -156.36,-245.57 -42.87,-53.48 -92.65,-105.3 -146.87,-143.61 -54.24,-38.34 -112.78,-63.08 -173.39,-63.07 -1.16,0 -2.32,0.01 -3.48,0.02 -63.89,1.02 -118.26,25.92 -164.26,63.04 -68.97,55.66 -118.64,138.91 -150.86,208.26 -16.13,34.66 -27.91,65.84 -35.65,88.32 -3.87,11.25 -6.73,20.32 -8.62,26.57 -0.95,3.12 -1.65,5.54 -2.12,7.17 -0.46,1.63 -0.68,2.45 -0.68,2.45 l -9.66,-2.59 v 0" /><path
         id="path48"
         style="fill:#4a9736;fill-opacity:1;fill-rule:nonzero;stroke:none"
         d="m 3195.59,2418.39 c -7.46,-640.42 -417.97,-1155.05 -916.73,-1149.11 -109.77,1.24 -214.99,5.1 -312.06,22.22 -103.15,-19.32 -215.69,-22.37 -333.61,-22.37 -498.75,0 -903.19,519.33 -903.19,1159.89 0,83.13 6.77,164.32 19.883,242.47 37.422,226.6 126.484,428.74 250.617,585.19 1.39,1.94 2.9,3.87 4.56,5.66 70.83,82.58 323.94,149.27 654.51,175.09 95.96,7.59 198.56,11.6 305.16,11.6 79.53,0 156.99,-2.21 231.01,-6.49 366.6,-21.12 652.57,-91.55 728.65,-180.2 1.66,-1.93 3.18,-3.86 4.7,-5.8 109.49,-139.04 191.24,-313.99 233.77,-509.93 22.65,-104.25 34.1,-214.3 32.73,-328.22" /><path
         id="path50"
         style="fill:#caab79;fill-opacity:1;fill-rule:nonzero;stroke:none"
         d="m 3032.79,1770.03 c 38.07,70.06 70.31,145.75 95.82,225.87 0,0 0,0 0.01,0 -25.51,-80.12 -57.74,-155.8 -95.81,-225.86 l -0.02,-0.01" /><path
         id="path52"
         style="fill:#257c4c;fill-opacity:1;fill-rule:nonzero;stroke:none"
         d="m 3128.62,1995.9 c -0.01,0 -0.01,0 -0.01,0 26.47,83.17 45.66,171.04 56.57,262.52 v -0.01 c -10.91,-91.48 -30.09,-179.34 -56.56,-262.51 m 66.29,391.53 v 0 c 0.27,8.54 0.47,17.07 0.6,25.66 -0.13,-8.59 -0.33,-17.12 -0.6,-25.66" /><path
         id="path54"
         style="fill:#226e44;fill-opacity:1;fill-rule:nonzero;stroke:none"
         d="m 3185.18,2258.41 v 0.01 c 5.05,42.28 8.33,85.36 9.73,129.01 v 0 c -1.4,-43.65 -4.68,-86.74 -9.73,-129.02" /><path
         id="path56"
         style="fill:#257c4c;fill-opacity:1;fill-rule:nonzero;stroke:none"
         d="m 3195.57,2417.29 c 0.01,0.35 0.01,0.75 0.02,1.1 0.07,6.23 0.11,12.45 0.11,18.65 0,-6.2 -0.04,-12.42 -0.11,-18.65 -0.01,-0.35 -0.01,-0.75 -0.02,-1.1 m -271.18,845.05 c -0.07,0.08 -0.14,0.17 -0.21,0.25 0.07,-0.08 0.14,-0.16 0.21,-0.25 m -0.26,0.31 c -0.05,0.06 -0.11,0.13 -0.17,0.2 0.06,-0.07 0.11,-0.14 0.17,-0.2 m -0.22,0.25 c -0.06,0.07 -0.11,0.13 -0.17,0.2 0.06,-0.07 0.11,-0.13 0.17,-0.2 m -0.22,0.26 c -0.06,0.06 -0.12,0.13 -0.17,0.19 0.06,-0.06 0.11,-0.13 0.17,-0.19 m -0.22,0.25 c -0.06,0.06 -0.13,0.14 -0.18,0.21 0.06,-0.07 0.12,-0.14 0.18,-0.21 m -0.22,0.24 c -0.07,0.09 -0.14,0.16 -0.21,0.24 0.07,-0.08 0.14,-0.16 0.21,-0.24 m -0.22,0.25 c -0.3,0.35 -0.61,0.69 -0.92,1.03 0.31,-0.34 0.62,-0.68 0.92,-1.03 m -0.93,1.04 c -0.07,0.08 -0.15,0.16 -0.22,0.24 0.07,-0.08 0.15,-0.16 0.22,-0.24 m -0.24,0.27 c -0.07,0.07 -0.15,0.15 -0.22,0.23 0.08,-0.08 0.15,-0.16 0.22,-0.23 m -0.24,0.25 c -0.07,0.08 -0.14,0.16 -0.21,0.24 0.07,-0.08 0.14,-0.16 0.21,-0.24 m -0.23,0.26 c -0.31,0.34 -0.63,0.68 -0.95,1.01 0.32,-0.33 0.64,-0.67 0.95,-1.01 m -0.99,1.06 c -0.06,0.06 -0.13,0.13 -0.19,0.19 0.07,-0.06 0.13,-0.13 0.19,-0.19 m -0.26,0.27 c -0.05,0.06 -0.1,0.11 -0.16,0.17 0.05,-0.06 0.11,-0.11 0.16,-0.17 m -0.25,0.26 c -0.05,0.05 -0.09,0.1 -0.13,0.14 0.04,-0.04 0.08,-0.09 0.13,-0.14 m -0.24,0.26 c -0.04,0.04 -0.08,0.07 -0.12,0.12 0.04,-0.04 0.08,-0.08 0.12,-0.12 m -0.24,0.25 c -0.03,0.02 -0.07,0.06 -0.09,0.09 0.03,-0.03 0.06,-0.06 0.09,-0.09 m -0.24,0.25 c -0.01,0 -0.02,0.01 -0.02,0.02 0,-0.01 0.01,-0.02 0.02,-0.02" /><path
         id="path58"
         style="fill:#479235;fill-opacity:1;fill-rule:nonzero;stroke:none"
         d="m 2192.59,1271.02 c -38.09,1.21 -75.49,3.1 -112.03,6.16 19.22,8.42 38.2,17.47 56.95,27.15 17.75,-11.58 36.14,-22.7 55.08,-33.31 m 460.36,409.61 c -12.12,0 -24.21,2.25 -35.63,6.7 l -43.22,16.88 c 170.13,251.43 274.77,578.08 278.94,936.12 1.74,142.85 -12.64,280.85 -41.04,411.57 -24.06,110.89 -58.23,216.34 -101.01,314.78 99.66,-27.96 172.3,-61.6 208.16,-98.59 0,-0.01 0.01,-0.02 0.02,-0.02 0.05,-0.06 0.1,-0.11 0.15,-0.16 0.02,-0.03 0.06,-0.07 0.09,-0.09 0.04,-0.05 0.08,-0.09 0.12,-0.13 0.04,-0.05 0.08,-0.08 0.12,-0.12 0.04,-0.04 0.07,-0.08 0.11,-0.12 0.04,-0.04 0.08,-0.09 0.13,-0.14 0.03,-0.03 0.06,-0.06 0.09,-0.09 0.06,-0.06 0.11,-0.11 0.16,-0.17 0.02,-0.02 0.05,-0.05 0.07,-0.08 0.06,-0.06 0.13,-0.13 0.19,-0.19 0.01,-0.02 0.03,-0.03 0.04,-0.05 0.32,-0.33 0.64,-0.67 0.95,-1.01 0.01,-0.01 0.01,-0.01 0.02,-0.02 0.07,-0.08 0.14,-0.16 0.21,-0.24 0.01,0 0.02,-0.01 0.02,-0.02 0.07,-0.08 0.15,-0.16 0.22,-0.23 0,-0.01 0.01,-0.02 0.02,-0.03 0.07,-0.08 0.15,-0.16 0.22,-0.24 l 0.01,-0.01 c 0.31,-0.34 0.62,-0.68 0.92,-1.03 0,0 0.01,0 0.01,-0.01 0.07,-0.08 0.14,-0.15 0.21,-0.24 0.01,-0.01 0.02,-0.02 0.04,-0.03 0.05,-0.07 0.12,-0.15 0.18,-0.21 0.02,-0.02 0.03,-0.04 0.05,-0.06 0.05,-0.06 0.11,-0.13 0.17,-0.19 0.02,-0.02 0.03,-0.04 0.05,-0.06 0.06,-0.07 0.11,-0.13 0.17,-0.2 0.02,-0.02 0.03,-0.04 0.05,-0.05 0.06,-0.07 0.12,-0.14 0.17,-0.2 0.02,-0.02 0.03,-0.04 0.05,-0.06 0.07,-0.08 0.14,-0.17 0.21,-0.25 v 0 c 1.66,-1.93 3.18,-3.86 4.7,-5.8 109.49,-139.04 191.24,-313.99 233.77,-509.93 21.41,-98.55 32.82,-202.28 32.84,-309.57 0,-6.2 -0.04,-12.42 -0.11,-18.65 -0.01,-0.35 -0.01,-0.75 -0.02,-1.1 -0.02,-1.41 -0.03,-2.8 -0.06,-4.2 -0.13,-8.59 -0.33,-17.12 -0.6,-25.66 -1.4,-43.65 -4.68,-86.73 -9.73,-129.01 -10.91,-91.48 -30.1,-179.35 -56.57,-262.52 -25.51,-80.12 -57.75,-155.81 -95.82,-225.87 l -356.71,-86.63 c -7.61,-1.85 -15.38,-2.77 -23.13,-2.77" /><path
         id="path60"
         style="fill:#509d35;fill-opacity:1;fill-rule:nonzero;stroke:none"
         d="m 1572.87,1401.52 c -270.36,0 -512.5,241.35 -621.147,588.35 37.547,8.02 63.447,52.46 58.767,103.24 -4.73,51.46 -39.158,90.8 -78.193,90.8 -1.77,0 -3.555,-0.08 -5.34,-0.25 -6.695,-0.61 -13.078,-2.36 -19.055,-5.1 -5.359,34.28 -9.476,69.16 -12.285,104.67 49.867,4.71 85.406,61.28 79.406,126.47 -5.054,54.95 -38.015,98.49 -78.128,108.13 39.41,428.58 280.695,761.64 591.545,779.85 8.9,0.52 17.78,0.78 26.63,0.78 348.03,0 649.31,-399.94 679.22,-910.36 11.93,-203.53 -21.06,-394.68 -86.94,-553.5 l -3.93,1.85 -212.38,-56.06 -29.56,-7.8 v 0 l -54.06,-14.28 v 0 0 c 0.06,-0.28 0.14,-0.59 0.2,-0.87 0.06,-0.25 0.1,-0.45 0.16,-0.7 0.03,-0.11 0.06,-0.23 0.08,-0.34 0.05,-0.2 0.09,-0.37 0.13,-0.58 18.31,-78.99 50.34,-153.22 94.7,-221.06 -87.85,-78.3 -190.99,-125.89 -303.19,-132.46 -8.9,-0.53 -17.79,-0.78 -26.63,-0.78 m -219.15,1556.5 c -4.89,0 -9.8,-0.14 -14.72,-0.43 -198.54,-11.64 -345.742,-255.61 -328.79,-544.93 16.53,-282.15 183.08,-503.24 375.46,-503.24 4.89,0 9.8,0.15 14.72,0.43 198.54,11.64 345.74,255.62 328.79,544.94 -16.53,282.15 -183.07,503.23 -375.46,503.23" /><path
         id="path62"
         style="fill:#56a234;fill-opacity:1;fill-rule:nonzero;stroke:none"
         d="m 1385.67,1909.42 c -192.38,0 -358.93,221.09 -375.46,503.24 -16.952,289.32 130.25,533.29 328.79,544.93 4.92,0.29 9.83,0.43 14.72,0.43 192.39,0 358.93,-221.08 375.46,-503.23 16.95,-289.32 -130.25,-533.3 -328.79,-544.94 -4.92,-0.28 -9.83,-0.43 -14.72,-0.43" /><path
         id="path64"
         style="fill:#fef5d8;fill-opacity:1;fill-rule:nonzero;stroke:none"
         d="m 2571.54,3001.39 c 11.73,-200.15 -224.87,-376.83 -528.45,-394.62 -303.59,-17.79 -559.2,130.05 -570.93,330.2 -11.73,200.15 224.87,376.83 528.46,394.62 303.58,17.79 559.19,-130.05 570.92,-330.2" /><path
         id="path66"
         style="fill:#fef5d8;fill-opacity:1;fill-rule:nonzero;stroke:none"
         d="m 2195.74,3388.41 c -8.57,-172.87 -93.9,-329.18 -232.26,-454.01 -218.17,-196.76 -568.2,-315.1 -956.49,-296.05 -88.787,4.42 -174.81,15.75 -257.107,33.14 37.422,226.6 126.484,428.74 250.617,585.19 1.38,1.94 2.9,3.87 4.56,5.66 70.83,82.58 323.94,149.27 654.51,175.09 95.96,7.59 198.56,11.6 305.16,11.6 79.53,0 156.99,-2.21 231.01,-6.49 0.96,-17.95 0.82,-36.04 0,-54.13" /><path
         id="path68"
         style="fill:#fef5d8;fill-opacity:1;fill-rule:nonzero;stroke:none"
         d="m 3162.86,2746.61 c -44.32,-8.28 -89.48,-15.19 -135.46,-20.57 -421.15,-49.44 -809.43,36.17 -1063.92,208.36 -169.42,114.61 -279.48,267.6 -300.33,444.62 -2.2,19.61 -3.45,38.94 -3.58,58.41 95.96,7.59 198.56,11.6 305.16,11.6 79.53,0 156.99,-2.21 231.01,-6.49 366.6,-21.12 652.57,-91.55 728.65,-180.2 1.66,-1.93 3.18,-3.86 4.7,-5.8 109.49,-139.04 191.24,-313.99 233.77,-509.93" /><path
         id="path70"
         style="fill:#fef5d8;fill-opacity:1;fill-rule:nonzero;stroke:none"
         d="m 2944.28,3215.26 c 0,-129.24 -438.55,-233.91 -979.55,-233.91 -541.01,0 -979.554,104.67 -979.554,233.91 0,14.08 5.246,28.03 15.324,41.42 1.38,1.94 2.9,3.87 4.56,5.66 91.41,106.61 486.32,186.69 959.67,186.69 473.34,0 868.26,-80.08 959.66,-186.69 1.66,-1.93 3.18,-3.86 4.7,-5.8 9.94,-13.39 15.19,-27.2 15.19,-41.28" /><path
         id="path72"
         style="fill:#b88c45;fill-opacity:1;fill-rule:nonzero;stroke:none"
         d="m 2744.89,3132.95 h -0.11 l -406.52,-95.43 c -30.6,-7.16 -62.11,-10.01 -93.5,-8.3 l -428.93,22.75 -117.39,6.14 -209.63,11.15 c -55.28,2.84 -108.51,21.84 -153.21,54.37 l -127.97,93.16 129.22,83.14 270.03,-6.14 c 14.56,-0.34 29.12,-0.23 43.67,0.57 36.63,1.59 73.03,6.48 108.97,14.33 l 3.98,0.91 101.69,22.64 h 450.09 l 122.16,-57.1 c 36.51,-17.06 75.64,-27.99 115.79,-32.2 l 131.04,-13.76 60.62,-96.23" /><path
         id="path74"
         style="fill:#57a234;fill-opacity:1;fill-rule:nonzero;stroke:none"
         d="m 888.98,2282.92 c -47.339,0 -89.105,47.7 -94.847,110.13 -6.008,65.25 29.617,121.88 79.574,126.48 2.164,0.2 4.328,0.29 6.473,0.29 5.668,0 11.258,-0.68 16.715,-1.99 -6.125,-66.62 -7.375,-135.54 -3.247,-205.94 0.563,-9.59 1.219,-19.16 1.969,-28.66 -0.054,-0.01 -0.109,-0.01 -0.168,-0.02 -2.164,-0.2 -4.32,-0.29 -6.469,-0.29" /><path
         id="path76"
         style="fill:#5fa637;fill-opacity:1;fill-rule:nonzero;stroke:none"
         d="m 895.617,2283.23 c -0.75,9.5 -1.406,19.07 -1.969,28.66 -4.128,70.4 -2.878,139.32 3.247,205.94 40.113,-9.64 73.074,-53.18 78.128,-108.13 6,-65.19 -29.539,-121.76 -79.406,-126.47" /><path
         id="path78"
         style="fill:#57a234;fill-opacity:1;fill-rule:nonzero;stroke:none"
         d="m 939.551,1988.58 c -39.031,0 -73.461,39.34 -78.199,90.81 -4.145,45.05 15.777,85.11 46.55,99.17 10.258,-65.57 25.047,-128.72 43.821,-188.69 -2.239,-0.48 -4.516,-0.83 -6.836,-1.04 -1.785,-0.17 -3.567,-0.25 -5.336,-0.25" /><path
         id="path80"
         style="fill:#5fa637;fill-opacity:1;fill-rule:nonzero;stroke:none"
         d="m 951.723,1989.87 c -18.774,59.97 -33.563,123.12 -43.821,188.69 5.977,2.74 12.36,4.49 19.055,5.1 1.785,0.17 3.57,0.25 5.34,0.25 39.035,0 73.463,-39.34 78.193,-90.8 4.68,-50.78 -21.22,-95.22 -58.767,-103.24" /><path
         id="path82"
         style="fill:#ffffff;fill-opacity:1;fill-rule:nonzero;stroke:none"
         d="m 1815.83,3051.97 -117.39,6.14 -47.89,236.25 -61.76,303.81 c -18.43,90.66 -107.15,149.57 -197.69,131.38 l -234.86,-47.07 c -30.79,-6.17 -60.75,13.8 -66.91,44.59 v 0 c -6.15,30.77 13.8,60.71 44.57,66.88 l 234.8,47.07 c 151.96,30.48 300.73,-68.25 331.56,-220.1 l 63.24,-311.32 52.33,-257.63" /><path
         id="path84"
         style="fill:#ebebea;fill-opacity:1;fill-rule:nonzero;stroke:none"
         d="m 1188.37,3736.52 c 0,-23.03 -18.67,-41.71 -41.7,-41.71 -23.04,0 -41.71,18.68 -41.71,41.71 0,23.04 18.67,41.71 41.71,41.71 23.03,0 41.7,-18.67 41.7,-41.71" /><path
         id="path86"
         style="fill:#60c332;fill-opacity:1;fill-rule:nonzero;stroke:none"
         d="m 3854.74,1873.44 c 0,0 -172.67,-665.99 -826.33,-739.99 -653.66,-74 -1126.39,209.67 -1220.99,624.86 l 83.62,22.08 212.38,56.06 279.59,-131.54 73.99,28.96 c 13.22,5.16 27.89,5.17 41.1,0.02 l 119.22,-46.56 c 18.73,-7.3 39.23,-8.68 58.76,-3.93 l 545.59,132.51 142.06,13.12 c 16.44,1.53 32.04,7.93 44.8,18.42 l 166.68,136.99 184.99,-73.44 94.54,-37.56" /><path
         id="path88"
         style="fill:#af9868;fill-opacity:1;fill-rule:nonzero;stroke:none"
         d="m 2824.92,1121.7 h -0.05 0.05 v 0 m 0.01,0 c 64.8,0 131.89,3.74 200.99,11.47 -69.14,-7.74 -136.15,-11.47 -200.99,-11.47 m 201.7,11.55 c 0.04,0 0.1,0.01 0.14,0.01 -0.04,0 -0.1,-0.01 -0.14,-0.01 m 0.25,0.02 c 0.51,0.06 1.01,0.12 1.53,0.18 v 0 0 c -0.52,-0.06 -1.02,-0.12 -1.53,-0.18 m 2.58,0.3 c 0.08,0.01 0.21,0.02 0.29,0.03 -0.09,-0.01 -0.2,-0.02 -0.29,-0.03 m 1.06,0.12 c 0.08,0.01 0.25,0.03 0.33,0.04 -0.1,-0.02 -0.22,-0.03 -0.33,-0.04 m 1.08,0.12 c 0.08,0.01 0.22,0.03 0.3,0.04 -0.09,-0.01 -0.2,-0.03 -0.3,-0.04 m 1.1,0.13 c 0.08,0.01 0.19,0.02 0.27,0.03 -0.1,-0.01 -0.18,-0.02 -0.27,-0.03 m 1.25,0.15 c 0.04,0 0,0 0.04,0.01 -0.01,-0.01 -0.03,-0.01 -0.04,-0.01 m 3.35,0.4 0.05,0.01 c -0.02,0 -0.04,0 -0.05,-0.01" /><path
         id="path90"
         style="fill:#56b735;fill-opacity:1;fill-rule:nonzero;stroke:none"
         d="m 2824.92,1121.7 h -0.05 c -545.77,0.03 -931.25,264.71 -1016.88,634.12 -0.04,0.21 -0.08,0.38 -0.13,0.58 -0.02,0.11 -0.05,0.23 -0.08,0.34 -0.06,0.25 -0.1,0.45 -0.16,0.7 -0.06,0.28 -0.14,0.59 -0.2,0.87 v 0 l 54.06,14.28 c 163.74,-465.85 578.17,-589.93 949.63,-589.93 316.38,0 601.59,90.01 674.18,135.51 -114.65,-89.69 -261.5,-160.87 -447.94,-183.67 l -0.05,-0.01 c -1.11,-0.13 -2.19,-0.26 -3.31,-0.39 -0.04,-0.01 0,-0.01 -0.04,-0.01 -0.33,-0.04 -0.66,-0.08 -0.98,-0.12 -0.08,-0.01 -0.19,-0.02 -0.27,-0.03 -0.27,-0.03 -0.53,-0.06 -0.8,-0.09 -0.08,-0.01 -0.22,-0.03 -0.3,-0.04 -0.25,-0.03 -0.49,-0.05 -0.75,-0.08 -0.08,-0.01 -0.25,-0.03 -0.33,-0.04 -0.27,-0.03 -0.5,-0.06 -0.77,-0.09 -0.08,-0.01 -0.21,-0.02 -0.29,-0.03 -0.35,-0.04 -0.7,-0.08 -1.05,-0.12 v 0 c -0.52,-0.06 -1.02,-0.12 -1.53,-0.18 -0.04,0 -0.07,0 -0.11,-0.01 -0.04,0 -0.1,-0.01 -0.14,-0.01 -0.24,-0.03 -0.48,-0.06 -0.71,-0.08 -69.1,-7.73 -136.19,-11.47 -200.99,-11.47 h -0.01" /><path
         id="path92"
         style="fill:#fef5d8;fill-opacity:1;fill-rule:nonzero;stroke:none"
         d="m 3760.21,1911 c -80.36,-186.66 -291.44,-541.31 -748.64,-593.05 -551.23,-62.4 -967.84,141.16 -1120.53,462.44 l 212.38,56.06 279.59,-131.54 73.99,28.96 c 13.21,5.16 27.89,5.17 41.1,0.02 l 119.22,-46.56 c 18.72,-7.3 39.23,-8.68 58.76,-3.93 l 545.59,132.51 142.06,13.12 c 16.44,1.53 32.04,7.93 44.8,18.42 l 166.68,136.99 185,-73.44" /><path
         id="path94"
         style="fill:#60c332;fill-opacity:1;fill-rule:nonzero;stroke:none"
         d="m 3760.21,1691.59 v -104.74 c 0,-21.43 -9.4,-41.78 -25.71,-55.69 l -200.37,-170.76 226.08,331.19" /><path
         id="path96"
         style="fill:#f0e5c8;fill-opacity:1;fill-rule:nonzero;stroke:none"
         d="m 2103.42,1836.45 c 0,0 342.24,-447.03 830.33,-336.03 488.09,111.01 641.46,484.02 641.46,484.02 l -166.68,-136.99 c -12.76,-10.49 -28.36,-16.89 -44.8,-18.42 l -142.06,-13.12 -545.59,-132.51 c -19.53,-4.75 -40.04,-3.37 -58.76,3.93 l -119.22,46.56 c -13.21,5.15 -27.89,5.14 -41.1,-0.02 l -73.99,-28.96 -279.59,131.54" /><path
         id="path98"
         style="fill:#ed0c72;fill-opacity:1;fill-rule:nonzero;stroke:none"
         d="m 2755.44,3303.48 c -42.63,-94.9 -154.11,-137.26 -249,-94.63 -94.89,42.63 -137.26,154.11 -94.63,249 42.63,94.89 154.12,137.26 249.01,94.63 94.88,-42.63 137.26,-154.11 94.62,-249" /><path
         id="path100"
         style="fill:#ed0c72;fill-opacity:1;fill-rule:nonzero;stroke:none"
         d="m 2622.31,3007.13 c -42.63,-94.89 -154.11,-137.26 -249,-94.63 -94.89,42.63 -137.26,154.12 -94.63,249 42.63,94.9 154.11,137.26 249.01,94.63 94.89,-42.62 137.25,-154.11 94.62,-249" /><path
         id="path102"
         style="fill:#ed0c72;fill-opacity:1;fill-rule:nonzero;stroke:none"
         d="m 2588.05,2994.11 c -94.9,42.63 -137.26,154.11 -94.63,249 42.62,94.89 154.11,137.26 249,94.63 94.89,-42.63 137.26,-154.11 94.63,-249 -42.63,-94.9 -154.11,-137.26 -249,-94.63" /><path
         id="path104"
         style="fill:#ed0c72;fill-opacity:1;fill-rule:nonzero;stroke:none"
         d="m 2291.7,3127.24 c -94.89,42.63 -137.26,154.11 -94.63,249.01 42.63,94.89 154.12,137.25 249.01,94.62 94.89,-42.63 137.25,-154.11 94.62,-249 -42.62,-94.89 -154.11,-137.26 -249,-94.63" /><path
         id="path106"
         style="fill:#ee178c;fill-opacity:1;fill-rule:nonzero;stroke:none"
         d="m 2715.42,3125.16 c -88.17,-33.51 -186.82,10.81 -220.33,98.98 -33.51,88.18 10.81,186.82 98.98,220.33 88.19,33.51 186.83,-10.8 220.33,-98.98 33.52,-88.18 -10.8,-186.82 -98.98,-220.33" /><path
         id="path108"
         style="fill:#ee178c;fill-opacity:1;fill-rule:nonzero;stroke:none"
         d="m 2440.05,3020.51 c -88.18,-33.51 -186.83,10.8 -220.33,98.98 -33.51,88.18 10.8,186.82 98.98,220.33 88.18,33.51 186.82,-10.8 220.33,-98.98 33.51,-88.18 -10.81,-186.82 -98.98,-220.33" /><path
         id="path110"
         style="fill:#ee178c;fill-opacity:1;fill-rule:nonzero;stroke:none"
         d="m 2409.73,3034.13 c -33.51,88.17 10.81,186.82 98.98,220.33 88.17,33.51 186.83,-10.81 220.33,-98.98 33.52,-88.18 -10.8,-186.83 -98.98,-220.33 -88.18,-33.51 -186.82,10.8 -220.33,98.98" /><path
         id="path112"
         style="fill:#ee178c;fill-opacity:1;fill-rule:nonzero;stroke:none"
         d="m 2305.08,3309.51 c -33.51,88.17 10.8,186.82 98.98,220.33 88.18,33.5 186.83,-10.81 220.33,-98.99 33.51,-88.17 -10.81,-186.82 -98.98,-220.33 -88.17,-33.51 -186.82,10.81 -220.33,98.99" /><path
         id="path114"
         style="fill:#f036a4;fill-opacity:1;fill-rule:nonzero;stroke:none"
         d="m 2575.36,3212.29 c -14.23,-31.67 -51.44,-45.81 -83.11,-31.58 -31.67,14.23 -45.81,51.44 -31.59,83.11 14.23,31.67 51.44,45.81 83.12,31.59 31.67,-14.23 45.81,-51.45 31.58,-83.12" /><path
         id="path116"
         style="fill:#1c1b19;fill-opacity:1;fill-rule:nonzero;stroke:none"
         d="m 2614.41,351.07 c -4.89,-5.011 -9.09,-10.531 -12.54,-16.449 l -5.27,2.731 c -0.76,3.367 -3.95,5.699 -7.46,5.289 -3.75,-0.45 -6.43,-3.84 -5.99,-7.59 0.44,-3.75 3.83,-6.43 7.58,-5.992 l 2.08,0.589 5.12,-2.648 c -2.85,-6.281 -4.9,-12.898 -6.11,-19.738 l 8.45,-1.5 c 2.61,14.789 9.62,28.386 20.3,39.328 l -6.16,5.98" /><path
         id="path118"
         style="fill:#1c1b19;fill-opacity:1;fill-rule:nonzero;stroke:none"
         d="m 2676.56,377.148 c -1.93,0 -3.85,-0.066 -5.77,-0.199 l -0.83,7.09 c 2.12,1.691 3.35,4.41 3.01,7.313 -0.53,4.437 -4.56,7.617 -9.01,7.109 -4.45,-0.531 -7.63,-4.559 -7.11,-9.012 0.34,-2.879 2.14,-5.219 4.58,-6.379 l 0.84,-7.07 c -8.09,-1.32 -15.89,-3.758 -23.33,-7.32 l 3.71,-7.739 c 10.57,5.059 21.98,7.618 33.91,7.618 5.63,0 11.24,-0.598 16.7,-1.778 l 1.83,8.391 c -6.07,1.308 -12.3,1.976 -18.53,1.976" /><path
         id="path120"
         style="fill:#1c1b19;fill-opacity:1;fill-rule:nonzero;stroke:none"
         d="m 2751.33,348.301 c 3.75,0.461 6.4,3.871 5.95,7.621 -0.46,3.738 -3.87,6.398 -7.61,5.949 -3.51,-0.43 -6.07,-3.441 -6.01,-6.902 l -4.7,-4.11 c -4.74,4.871 -10.08,9.211 -15.94,12.903 l -4.58,-7.262 c 12.84,-8.09 22.88,-19.551 29.03,-33.121 l 7.81,3.531 c -2.84,6.281 -6.42,12.141 -10.66,17.5 l 4.55,3.981 2.16,-0.09" /><path
         id="path122"
         style="fill:#1c1b19;fill-opacity:1;fill-rule:nonzero;stroke:none"
         d="m 2670.36,261.539 c -4.36,-0.258 -8.78,-0.391 -13.1,-0.391 -9.97,0 -19.62,0.704 -28.07,2.032 -4.41,0.711 -9.58,1.761 -14.39,3.308 11.86,-21.066 34.77,-35.386 61.03,-35.386 32.33,0 59.59,21.699 67.37,51 -7.72,-5.09 -17.05,-9.352 -27.84,-12.711 -13.36,-4.172 -28.92,-6.879 -45,-7.852" /><path
         id="path124"
         style="fill:#1c1b19;fill-opacity:1;fill-rule:nonzero;stroke:none"
         d="m 2705.75,296.488 c -8.48,0 -15.4,6.91 -15.4,15.403 0,8.5 6.92,15.398 15.4,15.398 8.5,0 15.41,-6.898 15.41,-15.398 0,-8.493 -6.91,-15.403 -15.41,-15.403 z m -53.64,-10.289 c -11.55,0 -20.95,9.41 -20.95,20.949 0,11.551 9.4,20.954 20.95,20.954 11.55,0 20.95,-9.403 20.95,-20.954 0,-11.539 -9.4,-20.949 -20.95,-20.949 z m 24.45,73.781 c -37.96,0 -68.85,-30.191 -68.85,-67.3 0,-4.828 0.53,-9.621 1.56,-14.289 7.62,-5.461 30.64,-10.082 60.55,-8.27 32.61,1.961 59.98,10.84 75.56,24.438 -0.06,2.211 -0.23,4.41 -0.52,6.582 -4.29,33.55 -33.66,58.839 -68.3,58.839" /><path
         id="path126"
         style="fill:#1c1b19;fill-opacity:1;fill-rule:nonzero;stroke:none"
         d="m 2857.78,338.84 c -3.34,1.312 -9.12,3.492 -15.65,2.68 -6.24,-0.778 -9.55,-3.848 -9.55,-11.391 v -9.82 h 25.22 v -19.438 h -25.22 v -61.769 h -21.88 v 61.769 h -15.17 v 19.438 h 15.17 v 10.062 c 0,19.027 10.14,31.508 29.09,31.508 7.27,0 13.1,-1.367 17.99,-3.481 V 338.84" /><path
         id="path128"
         style="fill:#1c1b19;fill-opacity:1;fill-rule:nonzero;stroke:none"
         d="m 2911.04,301.102 c -2.01,0.347 -4.05,0.527 -5.96,0.527 -10.14,0 -17.1,-6.207 -17.1,-18.27 v -44.257 h -21.88 v 81.207 h 21.21 v -8.868 c 5.11,7.618 12.9,11.059 22.89,11.059 4.68,0 9.59,-1.449 12.39,-3.82 l -11.55,-17.578" /><path
         id="path130"
         style="fill:#1c1b19;fill-opacity:1;fill-rule:nonzero;stroke:none"
         d="m 2939.94,287.379 h 35.96 c -2.01,10.391 -8.29,16.262 -17.69,16.262 -10.3,0 -16.33,-6.211 -18.27,-16.262 z m 57.92,-7.547 c 0,-2.512 -0.16,-5.523 -0.42,-7.371 h -57.58 c 2.35,-11.742 10.56,-16.84 20.87,-16.84 7.04,0 14.67,2.848 20.54,7.789 l 12.82,-14.078 C 2984.87,240.859 2973.13,237 2959.47,237 c -24.89,0 -42.16,16.941 -42.16,42.5 0,25.559 16.77,43 41.08,43 23.38,0 39.38,-17.348 39.47,-42.668" /><path
         id="path132"
         style="fill:#1c1b19;fill-opacity:1;fill-rule:nonzero;stroke:none"
         d="m 3026.61,287.379 h 35.96 c -2.01,10.391 -8.3,16.262 -17.69,16.262 -10.31,0 -16.34,-6.211 -18.27,-16.262 z m 57.92,-7.547 c 0,-2.512 -0.17,-5.523 -0.42,-7.371 h -57.59 c 2.36,-11.742 10.57,-16.84 20.87,-16.84 7.04,0 14.67,2.848 20.54,7.789 l 12.82,-14.078 C 3071.53,240.859 3059.8,237 3046.14,237 c -24.89,0 -42.16,16.941 -42.16,42.5 0,25.559 16.76,43 41.07,43 23.39,0 39.39,-17.348 39.48,-42.668" /><path
         id="path134"
         style="fill:#1c1b19;fill-opacity:1;fill-rule:nonzero;stroke:none"
         d="m 3114.75,279.762 c 0,-12.84 8.46,-22.391 20.87,-22.391 12.91,0 20.95,9.969 20.95,22.391 0,12.398 -8.04,22.367 -20.95,22.367 -12.41,0 -20.87,-9.547 -20.87,-22.367 z m 64.28,0 c 0,-24.403 -16.93,-42.762 -39.3,-42.762 -10.9,0 -18.62,4.281 -23.89,10.57 v -41.988 h -21.8 v 114.727 h 21.38 v -8.957 c 5.27,6.617 13.08,11.148 24.22,11.148 22.46,0 39.39,-18.359 39.39,-42.738" /><path
         id="path136"
         style="fill:#1c1b19;fill-opacity:1;fill-rule:nonzero;stroke:none"
         d="m 3211.24,239.102 h -21.87 v 81.207 h 21.87 z m 2.94,107.777 c 0,-7.879 -6.12,-13.91 -14,-13.91 -7.88,0 -13.91,6.031 -13.91,13.91 0,7.891 6.03,14.09 13.91,14.09 7.88,0 14,-6.199 14,-14.09" /><path
         id="path138"
         style="fill:#1c1b19;fill-opacity:1;fill-rule:nonzero;stroke:none"
         d="m 3247.74,291.402 30.6,28.907 h 26.82 l -39.39,-38.207 39.64,-43 h -26.9 l -30.77,32.847 v -32.847 h -21.87 v 120.687 h 21.87 v -68.387" /><path
         id="path140"
         style="fill:#1c1b19;fill-opacity:1;fill-rule:nonzero;stroke:none"
         d="m 1757.29,261.559 v 36.332 c -4.48,6.968 -14.1,12.941 -24.06,12.941 -16.08,0 -25.71,-13.273 -25.71,-31.023 0,-17.75 9.63,-30.848 25.71,-30.848 9.96,0 19.58,5.641 24.06,12.598 z m 0,-21.727 v 11.949 c -5.98,-8.133 -15.76,-13.929 -27.04,-13.929 -20.9,0 -35.66,15.918 -35.66,41.957 0,25.55 14.59,42.132 35.66,42.132 10.79,0 20.57,-5.3 27.04,-14.101 v 42.64 h 12.44 V 239.832 h -12.44" /><path
         id="path142"
         style="fill:#1c1b19;fill-opacity:1;fill-rule:nonzero;stroke:none"
         d="m 1825.13,311.66 c -17.09,0 -25.55,-14.43 -26.21,-26.711 h 52.58 c -0.16,11.942 -8.13,26.711 -26.37,26.711 z m -39.31,-31.68 c 0,23.219 16.58,41.961 39.47,41.961 24.22,0 38.48,-18.902 38.48,-42.961 v -3.148 h -64.85 c 1,-15.102 11.61,-27.703 28.86,-27.703 9.12,0 18.42,3.652 24.72,10.121 l 5.97,-8.129 c -7.96,-7.961 -18.74,-12.269 -31.85,-12.269 -23.72,0 -40.8,17.078 -40.8,42.128" /><path
         id="path144"
         style="fill:#1c1b19;fill-opacity:1;fill-rule:nonzero;stroke:none"
         d="m 1872.73,250.449 6.47,8.949 c 5.31,-6.128 15.42,-11.437 26.37,-11.437 12.28,0 18.91,5.809 18.91,13.769 0,19.399 -49.59,7.469 -49.59,37.161 0,12.441 10.78,23.05 29.85,23.05 13.6,0 23.23,-5.132 29.69,-11.609 l -5.8,-8.621 c -4.81,5.801 -13.6,10.121 -23.89,10.121 -10.95,0 -17.75,-5.48 -17.75,-12.613 0,-17.578 49.6,-5.977 49.6,-37.16 0,-13.438 -10.78,-24.207 -31.52,-24.207 -13.1,0 -24.22,3.98 -32.34,12.597" /><path
         id="path146"
         style="fill:#1c1b19;fill-opacity:1;fill-rule:nonzero;stroke:none"
         d="m 1952.68,239.832 v 80.117 h 12.44 v -80.117 z m -2.15,99.859 c 0,4.649 3.81,8.457 8.29,8.457 4.64,0 8.46,-3.808 8.46,-8.457 0,-4.64 -3.82,-8.289 -8.46,-8.289 -4.48,0 -8.29,3.649 -8.29,8.289" /><path
         id="path148"
         style="fill:#1c1b19;fill-opacity:1;fill-rule:nonzero;stroke:none"
         d="m 2043.74,262.891 v 35 c -4.31,6.968 -13.93,12.941 -23.89,12.941 -16.09,0 -25.7,-12.773 -25.7,-30.523 0,-17.59 9.61,-30.52 25.7,-30.52 9.96,0 19.58,6.141 23.89,13.102 z m -58.05,-43.621 6.3,9.281 c 6.63,-7.949 14.6,-10.942 26.04,-10.942 13.27,0 25.71,6.461 25.71,24.051 v 11.449 c -5.81,-8.129 -15.59,-14.269 -26.87,-14.269 -20.9,0 -35.66,15.59 -35.66,41.469 0,25.711 14.59,41.632 35.66,41.632 10.78,0 20.4,-5.3 26.87,-14.101 v 12.109 h 12.44 V 242.16 c 0,-26.539 -18.58,-34.84 -38.15,-34.84 -13.6,0 -22.89,2.66 -32.34,11.95" /><path
         id="path150"
         style="fill:#1c1b19;fill-opacity:1;fill-rule:nonzero;stroke:none"
         d="m 2130.99,239.832 v 52.43 c 0,14.09 -7.13,18.57 -17.91,18.57 -9.79,0 -19.08,-5.973 -23.72,-12.441 v -58.559 h -12.45 v 80.117 h 12.45 V 308.34 c 5.64,6.629 16.58,13.601 28.52,13.601 16.76,0 25.55,-8.449 25.55,-25.882 v -56.227 h -12.44" /><path
         id="path152"
         style="fill:#1c1b19;fill-opacity:1;fill-rule:nonzero;stroke:none"
         d="m 2198.83,311.66 c -17.09,0 -25.55,-14.43 -26.21,-26.711 h 52.58 c -0.17,11.942 -8.12,26.711 -26.37,26.711 z m -39.31,-31.68 c 0,23.219 16.58,41.961 39.47,41.961 24.22,0 38.49,-18.902 38.49,-42.961 v -3.148 h -64.86 c 1,-15.102 11.61,-27.703 28.86,-27.703 9.13,0 18.41,3.652 24.72,10.121 l 5.97,-8.129 c -7.96,-7.961 -18.74,-12.269 -31.85,-12.269 -23.72,0 -40.8,17.078 -40.8,42.128" /><path
         id="path154"
         style="fill:#1c1b19;fill-opacity:1;fill-rule:nonzero;stroke:none"
         d="m 2311.46,261.559 v 36.332 c -4.49,6.968 -14.11,12.941 -24.06,12.941 -16.09,0 -25.71,-13.273 -25.71,-31.023 0,-17.75 9.62,-30.848 25.71,-30.848 9.95,0 19.57,5.641 24.06,12.598 z m 0,-21.727 v 11.949 c -5.98,-8.133 -15.76,-13.929 -27.05,-13.929 -20.89,0 -35.66,15.918 -35.66,41.957 0,25.55 14.6,42.132 35.66,42.132 10.79,0 20.58,-5.3 27.05,-14.101 v 42.64 h 12.44 V 239.832 h -12.44" /><path
         id="path156"
         style="fill:#1c1b19;fill-opacity:1;fill-rule:nonzero;stroke:none"
         d="m 2419.59,248.961 c 16.26,0 25.89,13.098 25.89,30.848 0,17.75 -9.63,31.023 -25.89,31.023 -9.78,0 -19.57,-5.973 -23.88,-12.941 v -36.332 c 4.31,-6.957 14.1,-12.598 23.88,-12.598 z m -36.32,-9.129 V 350.48 h 12.44 v -42.64 c 6.47,8.801 16.09,14.101 27.04,14.101 20.9,0 35.66,-16.582 35.66,-42.132 0,-26.039 -14.76,-41.957 -35.66,-41.957 -11.28,0 -21.07,5.796 -27.04,13.929 v -11.949 h -12.44" /><path
         id="path158"
         style="fill:#1c1b19;fill-opacity:1;fill-rule:nonzero;stroke:none"
         d="m 2472.01,219.77 c 1.83,-0.829 4.82,-1.329 6.8,-1.329 5.48,0 9.12,1.821 11.95,8.45 l 5.3,12.109 -33.5,80.949 H 2476 l 26.7,-65.679 26.54,65.679 h 13.6 l -40.14,-96.367 c -4.81,-11.613 -12.94,-16.094 -23.55,-16.262 -2.66,0 -6.81,0.5 -9.13,1.172 l 1.99,11.278" /></g></g></svg>